<?xml version="1.0" encoding="UTF-8" standalone="no"?>
<!DOCTYPE svg PUBLIC "-//W3C//DTD SVG 1.1//EN" "http://www.w3.org/Graphics/SVG/1.1/DTD/svg11.dtd">
<svg width="100%" height="100%" viewBox="0 0 690 142" version="1.1" xmlns="http://www.w3.org/2000/svg" xmlns:xlink="http://www.w3.org/1999/xlink" xml:space="preserve" xmlns:serif="http://www.serif.com/" style="fill-rule:evenodd;clip-rule:evenodd;stroke-linejoin:round;stroke-miterlimit:2;">
    <g transform="matrix(1,0,0,1,-14746.3,552.893)">
        <g transform="matrix(2,0,0,2,14746.3,-414.165)">
            <path d="M0,-38.126L0,0.021L15.203,0.021L15.203,-25.082L42.271,-25.104L42.271,-38.147L0,-38.126Z" style="fill:rgb(60,136,247);fill-rule:nonzero;"/>
        </g>
        <g transform="matrix(2,0,0,2,13169.9,-1677.46)">
            <rect x="788.169" y="562.285" width="46.313" height="13.021" style="fill:rgb(60,136,247);"/>
        </g>
        <g transform="matrix(2,0,0,2,14929.5,-534.019)">
            <path d="M0,50.792L16.318,50.792C25.853,50.792 30.913,46.426 30.913,39.529C30.913,33.096 25.853,28.958 17.696,28.958L0,28.958L0,50.792ZM0,0.002L0,19.65L14.364,19.65C24.017,19.65 29.186,15.515 29.186,9.194C29.186,3.563 24.819,0.002 17.007,0.002L0,0.002ZM-11.263,60.214L-11.263,-9.422L17.696,-9.422C33.208,-9.422 41.024,-3.791 41.024,7.356C41.024,15.973 35.737,22.064 25.626,23.327L25.626,23.672C36.313,23.787 43.091,30.224 43.091,39.99C43.091,52.399 34.472,60.214 19.306,60.214L-11.263,60.214Z" style="fill:rgb(38,39,40);fill-rule:nonzero;"/>
        </g>
        <g transform="matrix(2,0,0,2,15076.3,-497.702)">
            <path d="M0,34.241C8.732,34.241 14.246,27.576 14.246,17.349C14.246,6.778 8.846,0.113 0.458,0.113C-8.393,0.113 -14.019,6.663 -14.019,17.349C-14.019,27.576 -8.619,34.241 0,34.241M1.034,-8.964C16.545,-8.964 25.739,1.262 25.739,17.005C25.739,32.978 15.969,43.205 -0.576,43.205C-16.318,43.205 -25.513,33.552 -25.513,17.581C-25.513,1.492 -15.629,-8.964 1.034,-8.964" style="fill:rgb(38,39,40);fill-rule:nonzero;"/>
        </g>
        <g transform="matrix(2,0,0,2,15186.6,-497.702)">
            <path d="M0,34.241C8.732,34.241 14.246,27.576 14.246,17.349C14.246,6.778 8.847,0.113 0.458,0.113C-8.392,0.113 -14.019,6.663 -14.019,17.349C-14.019,27.576 -8.619,34.241 0,34.241M1.034,-8.964C16.545,-8.964 25.74,1.262 25.74,17.005C25.74,32.978 15.97,43.205 -0.575,43.205C-16.317,43.205 -25.513,33.552 -25.513,17.581C-25.513,1.492 -15.629,-8.964 1.034,-8.964" style="fill:rgb(38,39,40);fill-rule:nonzero;"/>
        </g>
        <g transform="matrix(2,0,0,2,15310.4,-533.131)">
            <path d="M0,51.842L-9.653,38.512L-17.008,46.44L-17.008,59.77L-27.921,59.77L-27.921,-9.077L-17.008,-9.077L-17.008,32.765L-16.663,32.765L5.518,9.784L18.158,9.784L-1.723,30.926L9.194,46.095C11.951,49.772 13.33,50.806 15.974,50.806C16.662,50.806 17.125,50.806 17.47,50.693L18.271,60.114C16.894,60.69 15.284,60.919 13.562,60.919C8.043,60.919 5.056,59.196 0,51.842" style="fill:rgb(38,39,40);fill-rule:nonzero;"/>
        </g>
        <g transform="matrix(2,0,0,2,15413.4,-444.843)">
            <path d="M0,-18.617C-0.117,-24.249 -3.563,-27.005 -10.342,-27.005C-16.204,-27.005 -19.419,-24.477 -19.419,-21.145C-18.961,-18.157 -18.503,-16.894 -15.284,-15.63C-12.985,-14.711 -12.527,-14.711 -8.85,-13.791C-8.506,-13.676 -8.161,-13.676 -7.93,-13.561C-5.286,-12.87 -3.332,-12.412 -2.299,-12.181C-1.265,-11.837 0.345,-11.263 2.525,-10.458C4.711,-9.54 6.203,-8.62 7.123,-7.701C8.96,-5.863 11.031,-2.415 11.031,1.838C11.031,11.488 2.644,16.776 -9.308,16.776C-23.214,16.776 -31.715,11.72 -31.833,0.344L-21.028,-0.003C-20.112,5.515 -16.317,8.272 -9.652,8.272C-4.021,8.272 -0.117,6.089 -0.117,1.838C-0.117,-2.3 -2.987,-3.679 -10.805,-5.632C-17.583,-7.241 -22.062,-8.62 -24.248,-9.885C-28.501,-12.526 -30.568,-16.203 -30.682,-21.145C-30.682,-29.42 -22.752,-35.393 -10.46,-35.393C2.87,-35.393 10.569,-29.533 10.687,-19.306L0,-18.617Z" style="fill:rgb(38,39,40);fill-rule:nonzero;"/>
        </g>
    </g>
</svg>
